<svg xmlns="http://www.w3.org/2000/svg" xmlns:xlink="http://www.w3.org/1999/xlink" viewBox="0 0 890 890">
  <defs>
    <style>
      .cls-1 {
        fill: url(#Gradiente_sem_nome_33);
      }

      .cls-2 {
        fill: #fff;
      }

      .cls-3 {
        fill: url(#Gradiente_sem_nome_33-2);
      }
    </style>
    <linearGradient id="Gradiente_sem_nome_33" data-name="Gradiente sem nome 33" x1="555.1" y1="183.19" x2="555.1" y2="406.17" gradientUnits="userSpaceOnUse">
      <stop offset="0" stop-color="#09f"/>
      <stop offset="1" stop-color="#00c9c0"/>
    </linearGradient>
    <linearGradient id="Gradiente_sem_nome_33-2" x1="634.11" y1="213.14" x2="634.11" y2="251.65" xlink:href="#Gradiente_sem_nome_33"/>
  </defs>
  <title>icon_flat</title>
  <g id="Camada_2" data-name="Camada 2">
    <g>
      <polygon class="cls-1" points="622.47 247.53 622.47 247.53 487.73 382.26 622.47 247.53"/>
      <path class="cls-2" d="M546.9,93.5h0c-245.77,0-445,199.23-445,445h0c0,245.77,199.23,445,445,445h0c245.77,0,445-199.23,445-445h0C991.9,292.73,792.67,93.5,546.9,93.5ZM410,784.5H309.32V729.12l13.54,13.54,21-21L410,655.49Zm132.08,0H441.4V682.74l20.82,20.82,21,21,21-21,37.86-37.86Zm120.52,0H561.93V645.9L662.64,545.18Zm117.22,0H679.15V528.67L779.86,428Zm41.28-346.71-46.56-46.56L483.24,682.55h0L441.4,640.72l-29.31-29.31L410,613.47l-87.17,87.17-13.54-13.54-36.66-36.66,36.66-36.66,50.51-50.51L412.09,511l29.31,29.31,41.84,41.84,58.87-58.87,19.81-19.81,27.71-27.71L724.37,341,675.84,292.5H821.13Z" transform="translate(-101.9 -93.5)"/>
      <polygon class="cls-3" points="645.74 224.26 622.47 247.53 622.47 247.53 645.74 224.26"/>
    </g>
  </g>
</svg>
